<?xml version="1.0" encoding="UTF-8" standalone="no"?>
<svg
   xmlns:dc="http://purl.org/dc/elements/1.1/"
   xmlns:cc="http://creativecommons.org/ns#"
   xmlns:rdf="http://www.w3.org/1999/02/22-rdf-syntax-ns#"
   xmlns:svg="http://www.w3.org/2000/svg"
   xmlns="http://www.w3.org/2000/svg"
   xmlns:sodipodi="http://sodipodi.sourceforge.net/DTD/sodipodi-0.dtd"
   xmlns:inkscape="http://www.inkscape.org/namespaces/inkscape"
   inkscape:version="1.0 (4035a4fb49, 2020-05-01)"
   sodipodi:docname="Void_Linux_logo (copia 1).svg"
   id="svg18"
   preserveAspectRatio="xMidYMid"
   version="1.1"
   viewBox="0 0 256 211"
   height="211px"
   width="256px">
  <metadata
     id="metadata24">
    <rdf:RDF>
      <cc:Work
         rdf:about="">
        <dc:format>image/svg+xml</dc:format>
        <dc:type
           rdf:resource="http://purl.org/dc/dcmitype/StillImage" />
      </cc:Work>
    </rdf:RDF>
  </metadata>
  <defs
     id="defs22" />
  <sodipodi:namedview
     inkscape:current-layer="svg18"
     inkscape:window-maximized="0"
     inkscape:window-y="28"
     inkscape:window-x="914"
     inkscape:cy="138.87259"
     inkscape:cx="187.06693"
     inkscape:zoom="0.68483412"
     showgrid="false"
     id="namedview20"
     inkscape:window-height="733"
     inkscape:window-width="445"
     inkscape:pageshadow="2"
     inkscape:pageopacity="0"
     guidetolerance="10"
     gridtolerance="10"
     objecttolerance="10"
     borderopacity="1"
     bordercolor="#666666"
     pagecolor="#ffffff" />
  <path
     d="M 128.01682,0 C 105.98494,0.04678314 84.523372,7.0072685 66.657757,19.900168 l 23.902685,23.902684 c 11.277448,-6.898594 24.236288,-10.559734 37.456378,-10.582214 39.77241,-7.9e-5 72.01434,32.241846 72.01426,72.014262 -0.0318,13.21538 -3.69956,26.16719 -10.60151,37.43708 l 23.94799,23.94799 c 12.8888,-17.87595 19.8404,-39.34715 19.87417,-61.38507 C 233.25173,47.115274 186.13644,0 128.01682,0 Z"
     fill="#abc2ab"
     id="path2" />
  <path
     d="m 189.37588,190.56963 -23.90269,-23.90268 c -11.27745,6.89859 -24.23629,10.55974 -37.45637,10.58221 -39.772417,8e-5 -72.014343,-32.24185 -72.014264,-72.01426 0.03183,-13.215382 3.699547,-26.167196 10.60151,-37.437081 L 42.656067,43.849832 C 29.76725,61.725769 22.815686,83.196977 22.781918,105.2349 c 0,58.11962 47.115274,105.2349 105.234902,105.2349 22.03188,-0.0468 43.49344,-7.00726 61.35906,-19.90017 z"
     fill="#478061"
     id="path4" />
  <circle
     fill="#abc2ab"
     cx="128"
     cy="105.2349"
     r="33.503357"
     id="circle6" />
</svg>
