<?xml version="1.0" encoding="UTF-8" standalone="no"?>
<svg
   xmlns:dc="http://purl.org/dc/elements/1.1/"
   xmlns:cc="http://creativecommons.org/ns#"
   xmlns:rdf="http://www.w3.org/1999/02/22-rdf-syntax-ns#"
   xmlns:svg="http://www.w3.org/2000/svg"
   xmlns="http://www.w3.org/2000/svg"
   xmlns:sodipodi="http://sodipodi.sourceforge.net/DTD/sodipodi-0.dtd"
   xmlns:inkscape="http://www.inkscape.org/namespaces/inkscape"
   inkscape:version="1.0 (4035a4fb49, 2020-05-01)"
   sodipodi:docname="Vacuix_logo.svg"
   id="svg18"
   preserveAspectRatio="xMidYMid"
   version="1.1"
   viewBox="0 0 256 211"
   height="211px"
   width="256px">
  <metadata
     id="metadata24">
    <rdf:RDF>
      <cc:Work
         rdf:about="">
        <dc:format>image/svg+xml</dc:format>
        <dc:type
           rdf:resource="http://purl.org/dc/dcmitype/StillImage" />
        <dc:title />
      </cc:Work>
    </rdf:RDF>
  </metadata>
  <defs
     id="defs22" />
  <sodipodi:namedview
     inkscape:pagecheckerboard="false"
     inkscape:current-layer="svg18"
     inkscape:window-maximized="0"
     inkscape:window-y="28"
     inkscape:window-x="686"
     inkscape:cy="182.03756"
     inkscape:cx="147.6436"
     inkscape:zoom="0.69312795"
     showgrid="false"
     id="namedview20"
     inkscape:window-height="733"
     inkscape:window-width="673"
     inkscape:pageshadow="2"
     inkscape:pageopacity="0"
     guidetolerance="10"
     gridtolerance="10"
     objecttolerance="10"
     borderopacity="1"
     bordercolor="#666666"
     pagecolor="#949494"
     inkscape:document-rotation="0" />
  <path
     style="fill:#cccccc;fill-opacity:1"
     d="M 128.01682,0 C 105.98494,0.04678314 84.523372,7.0072685 66.657757,19.900168 l 23.902685,23.902684 c 11.277448,-6.898594 24.236288,-10.559734 37.456378,-10.582214 39.77241,-7.9e-5 72.01434,32.241846 72.01426,72.014262 -0.0318,13.21538 -3.69956,26.16719 -10.60151,37.43708 l 23.94799,23.94799 c 12.8888,-17.87595 19.8404,-39.34715 19.87417,-61.38507 C 233.25173,47.115274 186.13644,0 128.01682,0 Z"
     fill="#abc2ab"
     id="path2" />
  <path
     style="fill:#808080;fill-opacity:1"
     d="m 189.37588,190.56963 -23.90269,-23.90268 c -11.27745,6.89859 -24.23629,10.55974 -37.45637,10.58221 -39.772417,8e-5 -72.014343,-32.24185 -72.014264,-72.01426 0.03183,-13.215382 3.699547,-26.167196 10.60151,-37.437081 L 42.656067,43.849832 C 29.76725,61.725769 22.815686,83.196977 22.781918,105.2349 c 0,58.11962 47.115274,105.2349 105.234902,105.2349 22.03188,-0.0468 43.49344,-7.00726 61.35906,-19.90017 z"
     fill="#478061"
     id="path4" />
  <circle
     style="fill:#cccccc;fill-opacity:1"
     fill="#abc2ab"
     cx="128"
     cy="105.2349"
     r="33.503357"
     id="circle6" />
  <path
     id="path2-3"
     fill="#abc2ab"
     d="m -314.01058,74.819561 c -22.03188,0.04678 -43.49344,7.007269 -61.35906,19.900168 l 23.90269,23.902681 c 11.27744,-6.89859 24.23628,-10.55973 37.45637,-10.58221 39.77241,-8e-5 72.01434,32.24184 72.01426,72.01426 -0.0318,13.21538 -3.69956,26.16719 -10.60151,37.43708 l 23.94799,23.94799 c 12.8888,-17.87595 19.8404,-39.34715 19.87417,-61.38507 0,-58.11963 -47.11529,-105.234899 -105.23491,-105.234899 z"
     style="fill:#4c566a;fill-opacity:1" />
  <path
     id="path4-6"
     fill="#478061"
     d="m -252.65152,265.38919 -23.90269,-23.90268 c -11.27745,6.89859 -24.23629,10.55974 -37.45637,10.58221 -39.77241,8e-5 -72.01434,-32.24185 -72.01426,-72.01426 0.0318,-13.21538 3.69955,-26.1672 10.60151,-37.43708 l -23.948,-23.94799 c -12.88881,17.87594 -19.84038,39.34715 -19.87415,61.38507 0,58.11962 47.11528,105.2349 105.2349,105.2349 22.03188,-0.0468 43.49344,-7.00726 61.35906,-19.90017 z"
     style="fill:#2e3440;fill-opacity:1" />
  <circle
     id="circle6-7"
     r="33.503357"
     cy="180.05446"
     cx="-314.0274"
     fill="#abc2ab"
     style="fill:#4c566a;fill-opacity:1" />
  <path
     id="path8-5"
     fill="#000000"
     d="m -411.43548,199.62995 c -1.14756,0.81968 -2.19266,1.22952 -3.1353,1.22952 h -4.05745 c -0.57379,0 -1.02461,-0.10245 -1.35249,-0.30737 -0.32787,-0.20493 -0.59427,-0.51231 -0.79919,-0.92215 l -20.77906,-38.60725 c -0.082,-0.082 -0.12296,-0.18443 -0.12296,-0.30738 v -0.36886 c 0,-0.40984 0.14345,-0.73772 0.43035,-0.98363 0.32787,-0.28689 0.84017,-0.43033 1.53691,-0.43033 h 25.26684 c 1.35248,0 2.23364,0.40984 2.64349,1.22953 l 12.78712,24.65208 35.84079,-24.65208 c 1.18854,-0.81969 2.43857,-1.22953 3.75007,-1.22953 h 3.99597 c 0.5328,0 0.7992,0.22541 0.7992,0.67624 0,0.36886 -0.32787,0.81968 -0.98361,1.35248 z"
     style="fill:#eceff4;fill-opacity:1" />
  <path
     id="path10-3"
     fill="#000000"
     d="m -355.67436,200.85947 c -2.13119,0 -4.01647,-0.32787 -5.65583,-0.98362 -1.63939,-0.69673 -3.01237,-1.63937 -4.11895,-2.82792 -1.10658,-1.18855 -1.94675,-2.58201 -2.52053,-4.18039 -0.57377,-1.63938 -0.86066,-3.40171 -0.86066,-5.287 0,-2.41807 0.40985,-4.79516 1.22953,-7.13126 0.81968,-2.33611 1.94675,-4.56976 3.38121,-6.70095 1.47543,-2.13119 3.19677,-4.09843 5.16401,-5.90174 2.00823,-1.80332 4.18041,-3.36072 6.51652,-4.67222 2.3771,-1.31149 4.87714,-2.3361 7.50013,-3.07382 2.62301,-0.7787 5.30748,-1.16805 8.05342,-1.16805 h 30.12348 c 2.17218,0 4.07795,0.32787 5.71734,0.98362 1.68035,0.65575 3.07381,1.5779 4.18039,2.76645 1.10658,1.14755 1.94676,2.52052 2.52053,4.11891 0.57379,1.59839 0.86069,3.34023 0.86069,5.2255 0,2.41809 -0.43034,4.81567 -1.29101,7.19276 -0.8197,2.33611 -1.96726,4.56976 -3.44269,6.70094 -1.47544,2.13118 -3.21728,4.11893 -5.22551,5.96323 -2.00823,1.80331 -4.2009,3.3812 -6.57799,4.73368 -2.37708,1.3115 -4.87713,2.35661 -7.50013,3.13531 -2.62299,0.73772 -5.26649,1.10657 -7.93048,1.10657 z m 37.00885,-25.1439 c 1.35249,-2.8689 2.02874,-5.02057 2.02874,-6.45502 0,-1.18855 -0.43035,-2.00824 -1.29103,-2.45907 -0.81969,-0.45082 -2.04921,-0.67624 -3.68858,-0.67624 h -8.36081 c -1.18854,0 -2.29512,0.16394 -3.31974,0.49181 -0.98363,0.2869 -1.90577,0.7992 -2.76644,1.53691 -0.86067,0.73773 -1.70084,1.72135 -2.52053,2.95089 -0.77869,1.22952 -1.57788,2.76643 -2.39757,4.61072 l -2.95089,6.70095 c -1.5574,3.48367 -2.33609,6.10667 -2.33609,7.869 0,1.18854 0.34836,2.04921 1.04509,2.582 0.69674,0.49181 1.70086,0.73772 3.01235,0.73772 h 8.42228 c 1.27052,0 2.43858,-0.18443 3.50417,-0.55328 1.0656,-0.40985 2.09021,-1.04511 3.07383,-1.90578 0.98362,-0.86067 1.92626,-2.00823 2.82791,-3.44268 0.90166,-1.43445 1.8238,-3.19678 2.76644,-5.28698 z"
     style="fill:#eceff4;fill-opacity:1" />
  <path
     id="path12-5"
     fill="#000000"
     d="m -297.90471,200.85947 c -0.73771,0 -1.10657,-0.2459 -1.10657,-0.73771 0,-0.2459 0.0615,-0.55329 0.18444,-0.92215 l 17.27487,-38.66872 c 0.49183,-1.06559 1.27053,-1.59839 2.33613,-1.59839 h 21.14791 c 0.7787,0 1.16805,0.2664 1.16805,0.79918 0,0.24591 -0.082,0.51232 -0.24589,0.79921 l -17.21343,38.66872 c -0.49182,1.10658 -1.27052,1.65986 -2.33612,1.65986 z"
     style="fill:#eceff4;fill-opacity:1" />
  <path
     id="path14-6"
     fill="#000000"
     d="m -267.67843,200.85947 c -0.73772,0 -1.10657,-0.2459 -1.10657,-0.73771 0,-0.2459 0.0615,-0.55329 0.18443,-0.92215 l 17.27488,-38.66872 c 0.49182,-1.06559 1.27053,-1.59839 2.33612,-1.59839 h 49.42712 c 2.13119,0 4.01646,0.32787 5.65583,0.98362 1.63937,0.65575 3.01234,1.5779 4.11892,2.76645 1.10657,1.14755 1.94676,2.52052 2.52055,4.11891 0.57377,1.59839 0.86066,3.34023 0.86066,5.2255 0,2.50006 -0.43033,4.95912 -1.291,7.37719 -0.86067,2.37709 -2.04922,4.63123 -3.56565,6.76242 -1.47543,2.13118 -3.23775,4.09843 -5.28696,5.90174 -2.00824,1.80331 -4.2009,3.36072 -6.578,4.67221 -2.33611,1.27052 -4.79517,2.27464 -7.37717,3.01235 -2.58203,0.73772 -5.16404,1.10658 -7.74605,1.10658 z m 53.48456,-25.1439 c 1.3115,-2.95087 1.96725,-5.10254 1.96725,-6.45502 0,-1.18855 -0.40984,-2.00824 -1.22952,-2.45907 -0.81969,-0.45082 -2.00824,-0.67624 -3.56565,-0.67624 h -12.47973 l -12.17235,27.48 h 12.41826 c 1.22953,0 2.37709,-0.18443 3.44269,-0.55328 1.06559,-0.40985 2.06971,-1.0451 3.01234,-1.90578 0.98363,-0.90166 1.92627,-2.04921 2.82792,-3.44268 0.94264,-1.43445 1.88528,-3.19678 2.82791,-5.28698 z"
     style="fill:#eceff4;fill-opacity:1" />
  <g
     transform="translate(-506.21302,-179.17994)"
     id="g883">
    <path
       style="fill:#53676c;fill-opacity:1"
       d="m 224.47053,17.185228 c -22.03188,0.04678 -43.49344,7.007269 -61.35906,19.900168 l 23.90269,23.902684 c 11.27744,-6.898594 24.23628,-10.559734 37.45637,-10.582214 39.77241,-7.9e-5 72.01434,32.241846 72.01426,72.014264 -0.0318,13.21538 -3.69956,26.16719 -10.60151,37.43708 l 23.94799,23.94799 c 12.8888,-17.87595 19.8404,-39.34715 19.87417,-61.38507 0,-58.119628 -47.11529,-105.234902 -105.23491,-105.234902 z"
       fill="#abc2ab"
       id="path2-36" />
    <path
       style="fill:#374548;fill-opacity:1"
       d="M 285.82959,207.75486 261.9269,183.85218 c -11.27745,6.89859 -24.23629,10.55974 -37.45637,10.58221 -39.77241,8e-5 -72.01434,-32.24185 -72.01426,-72.01426 0.0318,-13.21538 3.69955,-26.167198 10.60151,-37.437083 l -23.948,-23.947987 c -12.88881,17.875937 -19.84038,39.34715 -19.87415,61.38507 0,58.11962 47.11528,105.2349 105.2349,105.2349 22.03188,-0.0468 43.49344,-7.00726 61.35906,-19.90017 z"
       fill="#478061"
       id="path4-7" />
    <circle
       style="fill:#53676c;fill-opacity:1"
       fill="#abc2ab"
       cx="224.45372"
       cy="122.42013"
       r="33.503357"
       id="circle6-5" />
    <path
       style="fill:#eceff4;fill-opacity:1"
       d="m 127.04563,141.99562 c -1.14756,0.81968 -2.19266,1.22952 -3.1353,1.22952 h -4.05746 c -0.57378,0 -1.0246,-0.10245 -1.35248,-0.30737 -0.32787,-0.20493 -0.59427,-0.51231 -0.79919,-0.92215 L 96.922137,103.38837 c -0.08197,-0.082 -0.122955,-0.18443 -0.122955,-0.30738 v -0.36886 c 0,-0.40985 0.143448,-0.73772 0.430343,-0.98363 0.327872,-0.28689 0.840176,-0.43033 1.536913,-0.43033 h 25.266842 c 1.35248,0 2.23364,0.40984 2.64348,1.22952 l 12.78713,24.65209 35.84079,-24.65209 c 1.18854,-0.81968 2.43857,-1.22952 3.75007,-1.22952 h 3.99597 c 0.5328,0 0.7992,0.22541 0.7992,0.67624 0,0.36885 -0.32787,0.81968 -0.98361,1.35248 z"
       fill="#000000"
       id="path8-3" />
    <path
       style="fill:#eceff4;fill-opacity:1"
       d="m 182.80675,143.22514 c -2.13119,0 -4.01647,-0.32787 -5.65583,-0.98362 -1.63939,-0.69673 -3.01237,-1.63937 -4.11895,-2.82792 -1.10658,-1.18855 -1.94675,-2.58201 -2.52053,-4.18039 -0.57377,-1.63938 -0.86066,-3.40171 -0.86066,-5.287 0,-2.41807 0.40985,-4.79516 1.22953,-7.13126 0.81968,-2.33611 1.94675,-4.56976 3.38121,-6.70095 1.47543,-2.13119 3.19677,-4.09844 5.16401,-5.90174 2.00823,-1.80332 4.18041,-3.36072 6.51652,-4.67222 2.3771,-1.31149 4.87714,-2.3361 7.50013,-3.07382 2.62301,-0.7787 5.30748,-1.16805 8.05342,-1.16805 h 30.12348 c 2.17218,0 4.07795,0.32787 5.71734,0.98361 1.68035,0.65576 3.07381,1.57791 4.18039,2.76645 1.10658,1.14756 1.94676,2.52053 2.52053,4.11892 0.57379,1.59839 0.86069,3.34023 0.86069,5.2255 0,2.41809 -0.43034,4.81567 -1.29101,7.19276 -0.8197,2.33611 -1.96726,4.56976 -3.44269,6.70094 -1.47544,2.13118 -3.21728,4.11893 -5.22551,5.96323 -2.00823,1.80331 -4.2009,3.3812 -6.57799,4.73368 -2.37708,1.3115 -4.87713,2.35661 -7.50013,3.13531 -2.62299,0.73772 -5.26649,1.10657 -7.93048,1.10657 z m 37.00885,-25.1439 c 1.35249,-2.8689 2.02874,-5.02057 2.02874,-6.45502 0,-1.18855 -0.43035,-2.00824 -1.29103,-2.45907 -0.81969,-0.45082 -2.04921,-0.67624 -3.68858,-0.67624 h -8.36081 c -1.18854,0 -2.29512,0.16394 -3.31974,0.49181 -0.98363,0.28689 -1.90577,0.7992 -2.76644,1.53691 -0.86067,0.73772 -1.70084,1.72135 -2.52053,2.95089 -0.77869,1.22952 -1.57788,2.76643 -2.39757,4.61072 l -2.95089,6.70095 c -1.5574,3.48367 -2.33609,6.10667 -2.33609,7.869 0,1.18854 0.34836,2.04921 1.04509,2.582 0.69674,0.49181 1.70086,0.73772 3.01235,0.73772 h 8.42228 c 1.27052,0 2.43858,-0.18443 3.50417,-0.55328 1.0656,-0.40985 2.09021,-1.04511 3.07383,-1.90578 0.98362,-0.86067 1.92626,-2.00823 2.82791,-3.44268 0.90166,-1.43445 1.8238,-3.19678 2.76644,-5.28698 z"
       fill="#000000"
       id="path10-5" />
    <path
       style="fill:#eceff4;fill-opacity:1"
       d="m 240.5764,143.22514 c -0.73771,0 -1.10657,-0.2459 -1.10657,-0.73771 0,-0.2459 0.0615,-0.55329 0.18444,-0.92215 l 17.27487,-38.66872 c 0.49183,-1.06559 1.27053,-1.59839 2.33613,-1.59839 h 21.14791 c 0.7787,0 1.16805,0.26639 1.16805,0.79918 0,0.24591 -0.082,0.51231 -0.24589,0.79921 l -17.21343,38.66872 c -0.49182,1.10658 -1.27052,1.65986 -2.33612,1.65986 z"
       fill="#000000"
       id="path12-6" />
    <path
       style="fill:#eceff4;fill-opacity:1"
       d="m 270.80268,143.22514 c -0.73772,0 -1.10657,-0.2459 -1.10657,-0.73771 0,-0.2459 0.0615,-0.55329 0.18443,-0.92215 l 17.27488,-38.66872 c 0.49182,-1.06559 1.27053,-1.59839 2.33612,-1.59839 h 49.42712 c 2.13119,0 4.01646,0.32787 5.65583,0.98361 1.63937,0.65576 3.01234,1.57791 4.11892,2.76645 1.10657,1.14756 1.94676,2.52053 2.52055,4.11892 0.57377,1.59839 0.86066,3.34023 0.86066,5.2255 0,2.50006 -0.43033,4.95912 -1.291,7.37719 -0.86067,2.37709 -2.04922,4.63123 -3.56565,6.76242 -1.47543,2.13118 -3.23775,4.09843 -5.28696,5.90174 -2.00824,1.80331 -4.2009,3.36072 -6.578,4.67221 -2.33611,1.27052 -4.79517,2.27464 -7.37717,3.01235 -2.58203,0.73772 -5.16404,1.10658 -7.74605,1.10658 z m 53.48456,-25.1439 c 1.3115,-2.95087 1.96725,-5.10254 1.96725,-6.45502 0,-1.18855 -0.40984,-2.00824 -1.22952,-2.45907 -0.81969,-0.45082 -2.00824,-0.67624 -3.56565,-0.67624 h -12.47973 l -12.17235,27.48 h 12.41826 c 1.22953,0 2.37709,-0.18443 3.44269,-0.55328 1.06559,-0.40985 2.06971,-1.0451 3.01234,-1.90578 0.98363,-0.90166 1.92627,-2.04921 2.82792,-3.44268 0.94264,-1.43445 1.88528,-3.19678 2.82791,-5.28698 z"
       fill="#000000"
       id="path14-2" />
  </g>
  <path
     id="path2-367"
     fill="#abc2ab"
     d="m -287.14633,318.05881 c -22.03188,0.0468 -43.49345,7.00726 -61.35906,19.90016 l 23.90268,23.90269 c 11.27745,-6.8986 24.23629,-10.55974 37.45638,-10.58222 39.77241,-7e-5 72.01434,32.24185 72.01426,72.01427 -0.0318,13.21538 -3.69956,26.16719 -10.60151,37.43708 l 23.94799,23.94799 c 12.8888,-17.87595 19.8404,-39.34715 19.87417,-61.38507 0,-58.11963 -47.11529,-105.2349 -105.23491,-105.2349 z"
     style="fill:#3771c8;fill-opacity:1" />
  <path
     id="path4-5"
     fill="#478061"
     d="m -225.78727,508.62844 -23.90269,-23.90268 c -11.27745,6.89859 -24.23629,10.55974 -37.45637,10.58221 -39.77242,8e-5 -72.01434,-32.24185 -72.01427,-72.01426 0.0318,-13.21539 3.69955,-26.1672 10.60151,-37.43708 l -23.94799,-23.94799 c -12.88882,17.87594 -19.84039,39.34714 -19.87415,61.38507 0,58.11962 47.11527,105.2349 105.2349,105.2349 22.03188,-0.0468 43.49344,-7.00726 61.35906,-19.90017 z"
     style="fill:#214478;fill-opacity:1" />
  <circle
     id="circle6-3"
     r="33.503357"
     cy="423.2937"
     cx="-287.16315"
     fill="#abc2ab"
     style="fill:#3771c8;fill-opacity:1" />
  <path
     id="path8-56"
     fill="#000000"
     d="m -384.57124,442.8692 c -1.14756,0.81968 -2.19266,1.22952 -3.1353,1.22952 h -4.05745 c -0.57378,0 -1.02461,-0.10245 -1.35248,-0.30737 -0.32787,-0.20493 -0.59427,-0.51231 -0.7992,-0.92215 l -20.77906,-38.60726 c -0.082,-0.082 -0.12295,-0.18442 -0.12295,-0.30737 v -0.36887 c 0,-0.40984 0.14344,-0.73771 0.43034,-0.98362 0.32787,-0.28689 0.84017,-0.43033 1.53691,-0.43033 h 25.26685 c 1.35248,0 2.23364,0.40984 2.64348,1.22952 l 12.78712,24.65209 35.84079,-24.65209 c 1.18855,-0.81968 2.43857,-1.22952 3.75008,-1.22952 h 3.99596 c 0.53281,0 0.79921,0.22541 0.79921,0.67624 0,0.36885 -0.32787,0.81968 -0.98362,1.35248 z"
     style="fill:#eceff4;fill-opacity:1" />
  <path
     id="path10-2"
     fill="#000000"
     d="m -328.81012,444.09872 c -2.13119,0 -4.01646,-0.32787 -5.65583,-0.98362 -1.63939,-0.69673 -3.01237,-1.63937 -4.11895,-2.82792 -1.10657,-1.18855 -1.94675,-2.58201 -2.52052,-4.18039 -0.57378,-1.63938 -0.86066,-3.40171 -0.86066,-5.287 0,-2.41807 0.40984,-4.79516 1.22952,-7.13126 0.81969,-2.33611 1.94676,-4.56976 3.38122,-6.70095 1.47542,-2.13119 3.19676,-4.09844 5.16401,-5.90174 2.00823,-1.80332 4.1804,-3.36073 6.51651,-4.67222 2.3771,-1.3115 4.87714,-2.3361 7.50013,-3.07383 2.62301,-0.77869 5.30749,-1.16804 8.05343,-1.16804 h 30.12348 c 2.17218,0 4.07795,0.32787 5.71734,0.98361 1.68035,0.65575 3.07381,1.5779 4.18039,2.76645 1.10658,1.14756 1.94676,2.52053 2.52053,4.11892 0.57379,1.59839 0.86069,3.34022 0.86069,5.2255 0,2.41808 -0.43034,4.81567 -1.29101,7.19276 -0.8197,2.33611 -1.96726,4.56976 -3.44269,6.70094 -1.47544,2.13118 -3.21728,4.11893 -5.22551,5.96323 -2.00823,1.80331 -4.2009,3.3812 -6.57799,4.73368 -2.37708,1.3115 -4.87713,2.35661 -7.50013,3.13531 -2.62299,0.73772 -5.26649,1.10657 -7.93048,1.10657 z m 37.00886,-25.1439 c 1.35249,-2.8689 2.02874,-5.02058 2.02874,-6.45503 0,-1.18855 -0.43035,-2.00823 -1.29103,-2.45906 -0.81969,-0.45083 -2.04921,-0.67624 -3.68858,-0.67624 h -8.36081 c -1.18854,0 -2.29512,0.16394 -3.31974,0.49181 -0.98363,0.28689 -1.90577,0.7992 -2.76644,1.53691 -0.86067,0.73772 -1.70084,1.72135 -2.52053,2.95088 -0.77869,1.22953 -1.57788,2.76644 -2.39757,4.61073 l -2.9509,6.70095 c -1.55739,3.48367 -2.33609,6.10667 -2.33609,7.869 0,1.18854 0.34836,2.04921 1.04509,2.582 0.69675,0.49181 1.70086,0.73772 3.01235,0.73772 h 8.42229 c 1.27052,0 2.43858,-0.18443 3.50417,-0.55328 1.0656,-0.40985 2.09021,-1.04511 3.07383,-1.90578 0.98362,-0.86067 1.92626,-2.00823 2.82791,-3.44268 0.90166,-1.43445 1.8238,-3.19678 2.76644,-5.28698 z"
     style="fill:#eceff4;fill-opacity:1" />
  <path
     id="path12-9"
     fill="#000000"
     d="m -271.04046,444.09872 c -0.73771,0 -1.10657,-0.2459 -1.10657,-0.73771 0,-0.2459 0.0615,-0.55329 0.18444,-0.92215 l 17.27487,-38.66872 c 0.49183,-1.0656 1.27053,-1.59839 2.33613,-1.59839 h 21.14791 c 0.7787,0 1.16805,0.26639 1.16805,0.79918 0,0.24591 -0.082,0.51231 -0.24589,0.79921 l -17.21343,38.66872 c -0.49182,1.10658 -1.27052,1.65986 -2.33612,1.65986 z"
     style="fill:#eceff4;fill-opacity:1" />
  <path
     id="path14-1"
     fill="#000000"
     d="m -240.81418,444.09872 c -0.73772,0 -1.10657,-0.2459 -1.10657,-0.73771 0,-0.2459 0.0615,-0.55329 0.18443,-0.92215 l 17.27488,-38.66872 c 0.49182,-1.0656 1.27053,-1.59839 2.33612,-1.59839 h 49.42712 c 2.13119,0 4.01646,0.32787 5.65583,0.98361 1.63937,0.65575 3.01234,1.5779 4.11892,2.76645 1.10657,1.14756 1.94676,2.52053 2.52055,4.11892 0.57377,1.59839 0.86066,3.34022 0.86066,5.2255 0,2.50005 -0.43033,4.95912 -1.291,7.37719 -0.86067,2.37709 -2.04922,4.63123 -3.56565,6.76242 -1.47543,2.13118 -3.23775,4.09843 -5.28696,5.90174 -2.00824,1.80331 -4.2009,3.36072 -6.578,4.67221 -2.33611,1.27052 -4.79517,2.27464 -7.37717,3.01235 -2.58203,0.73772 -5.16404,1.10658 -7.74605,1.10658 z m 53.48456,-25.1439 c 1.3115,-2.95087 1.96725,-5.10255 1.96725,-6.45503 0,-1.18855 -0.40984,-2.00823 -1.22952,-2.45906 -0.81969,-0.45083 -2.00824,-0.67624 -3.56565,-0.67624 h -12.47973 l -12.17235,27.48 h 12.41826 c 1.22953,0 2.37709,-0.18443 3.44269,-0.55328 1.06559,-0.40985 2.06971,-1.0451 3.01234,-1.90578 0.98363,-0.90166 1.92627,-2.04921 2.82792,-3.44268 0.94264,-1.43445 1.88528,-3.19678 2.82791,-5.28698 z"
     style="fill:#eceff4;fill-opacity:1" />
  <g
     transform="translate(-48.940807,-193.34651)"
     id="g898">
    <path
       style="fill:#cccccc;fill-opacity:1"
       d="m 176.04731,-63.395583 c -22.03188,0.04678 -43.49345,7.007268 -61.35906,19.900168 l 23.90268,23.902684 c 11.27745,-6.898594 24.23629,-10.559734 37.45638,-10.582214 39.77241,-7.9e-5 72.01434,32.2418458 72.01426,72.014262 -0.0318,13.21538 -3.69956,26.16719 -10.60151,37.43708 l 23.94799,23.947993 c 12.8888,-17.875953 19.8404,-39.347153 19.87417,-61.385073 0,-58.119626 -47.11529,-105.2349 -105.23491,-105.2349 z"
       fill="#abc2ab"
       id="path2-3675" />
    <path
       style="fill:#808080;fill-opacity:1"
       d="m 237.40637,127.17405 -23.90269,-23.90268 c -11.27745,6.89859 -24.23629,10.55974 -37.45637,10.58221 -39.77242,8e-5 -72.01434,-32.241853 -72.01426,-72.014263 0.0318,-13.215382 3.69954,-26.167196 10.60151,-37.4370812 L 90.686558,-19.545751 C 77.797741,-1.6698142 70.846177,19.801394 70.812409,41.839317 c 0,58.11962 47.115271,105.234903 105.234901,105.234903 22.03188,-0.0468 43.49344,-7.00726 61.35906,-19.90017 z"
       fill="#478061"
       id="path4-3" />
    <circle
       style="fill:#cccccc;fill-opacity:1"
       fill="#abc2ab"
       cx="176.03049"
       cy="41.839317"
       r="33.503357"
       id="circle6-56" />
    <path
       style="fill:#eceff4;fill-opacity:1"
       d="m 78.622406,61.414807 c -1.147564,0.81968 -2.192665,1.22952 -3.135303,1.22952 H 71.42965 c -0.573782,0 -1.024609,-0.10245 -1.352481,-0.30737 -0.327871,-0.20493 -0.59427,-0.51231 -0.799195,-0.92215 L 48.498913,22.807555 c -0.08197,-0.08197 -0.122955,-0.184428 -0.122955,-0.307375 v -0.368865 c 0,-0.409842 0.143447,-0.737718 0.430343,-0.983628 0.327871,-0.286887 0.840175,-0.43033 1.536912,-0.43033 h 25.266845 c 1.35248,0 2.233641,0.409841 2.643482,1.229525 L 91.040663,46.598967 126.88145,21.946882 c 1.18855,-0.819684 2.43857,-1.229525 3.75008,-1.229525 h 3.99596 c 0.53281,0 0.79921,0.225413 0.79921,0.67624 0,0.368856 -0.32787,0.819683 -0.98361,1.35248 z"
       fill="#000000"
       id="path8-2" />
    <path
       style="fill:#eceff4;fill-opacity:1"
       d="m 134.38352,62.644327 c -2.13119,0 -4.01646,-0.32787 -5.65583,-0.98362 -1.63938,-0.69673 -3.01237,-1.63937 -4.11894,-2.82792 -1.10658,-1.18855 -1.94676,-2.58201 -2.52053,-4.18039 -0.57377,-1.63938 -0.86066,-3.40171 -0.86066,-5.287 0,-2.41807 0.40984,-4.79516 1.22952,-7.13126 0.81969,-2.33611 1.94676,-4.56976 3.38122,-6.70095 1.47542,-2.131187 3.19676,-4.098434 5.16401,-5.901741 2.00823,-1.803315 4.1804,-3.360721 6.51651,-4.672216 2.3771,-1.311495 4.87715,-2.336103 7.50014,-3.073825 2.623,-0.778698 5.30748,-1.168047 8.05342,-1.168047 h 30.12348 c 2.17218,0 4.07795,0.327871 5.71734,0.983614 1.68035,0.655752 3.07381,1.577903 4.18039,2.766451 1.10658,1.147555 1.94676,2.520527 2.52053,4.118918 0.57379,1.59839 0.86069,3.340224 0.86069,5.2255 0,2.418083 -0.43034,4.815666 -1.29101,7.192756 -0.8197,2.33611 -1.96726,4.56976 -3.44269,6.70094 -1.47544,2.13118 -3.21728,4.11893 -5.22551,5.96323 -2.00823,1.80331 -4.2009,3.3812 -6.57799,4.73368 -2.37708,1.3115 -4.87713,2.35661 -7.50013,3.13531 -2.62299,0.73772 -5.26649,1.10657 -7.93048,1.10657 z m 37.00886,-25.1439 c 1.35249,-2.868898 2.02874,-5.020573 2.02874,-6.455023 0,-1.188549 -0.43035,-2.008237 -1.29103,-2.459063 -0.81969,-0.450827 -2.04921,-0.67624 -3.68858,-0.67624 h -8.36081 c -1.18854,0 -2.29512,0.163935 -3.31974,0.491807 -0.98363,0.286895 -1.90577,0.7992 -2.76644,1.536913 -0.86067,0.737722 -1.70084,1.72135 -2.52053,2.950883 -0.77869,1.229526 -1.57788,2.766434 -2.39757,4.610723 l -2.95089,6.70095 c -1.5574,3.48367 -2.3361,6.10667 -2.3361,7.869 0,1.18854 0.34836,2.04921 1.04509,2.582 0.69675,0.49181 1.70086,0.73772 3.01235,0.73772 h 8.42229 c 1.27052,0 2.43858,-0.18443 3.50417,-0.55328 1.0656,-0.40985 2.09021,-1.04511 3.07383,-1.90578 0.98362,-0.86067 1.92626,-2.00823 2.82791,-3.44268 0.90166,-1.43445 1.8238,-3.19678 2.76644,-5.28698 z"
       fill="#000000"
       id="path10-9" />
    <path
       style="fill:#eceff4;fill-opacity:1"
       d="m 192.15318,62.644327 c -0.73771,0 -1.10657,-0.2459 -1.10657,-0.73771 0,-0.2459 0.0615,-0.55329 0.18444,-0.92215 l 17.27487,-38.668719 c 0.49183,-1.065594 1.27053,-1.59839 2.33613,-1.59839 h 21.14791 c 0.7787,0 1.16805,0.266394 1.16805,0.799182 0,0.24591 -0.082,0.512313 -0.24589,0.799208 l -17.21343,38.668719 c -0.49182,1.10658 -1.27052,1.65986 -2.33612,1.65986 z"
       fill="#000000"
       id="path12-1" />
    <path
       style="fill:#eceff4;fill-opacity:1"
       d="m 222.37946,62.644327 c -0.73772,0 -1.10657,-0.2459 -1.10657,-0.73771 0,-0.2459 0.0615,-0.55329 0.18443,-0.92215 L 238.7322,22.315748 c 0.49182,-1.065594 1.27053,-1.59839 2.33612,-1.59839 h 49.42712 c 2.13119,0 4.01646,0.327871 5.65583,0.983614 1.63937,0.655752 3.01234,1.577903 4.11892,2.766451 1.10657,1.147555 1.94676,2.520527 2.52055,4.118918 0.57377,1.59839 0.86066,3.340224 0.86066,5.2255 0,2.500053 -0.43033,4.959116 -1.291,7.377186 -0.86067,2.37709 -2.04922,4.63123 -3.56565,6.76242 -1.47543,2.13118 -3.23775,4.09843 -5.28696,5.90174 -2.00824,1.80331 -4.2009,3.36072 -6.578,4.67221 -2.33611,1.27052 -4.79517,2.27464 -7.37717,3.01235 -2.58203,0.73772 -5.16404,1.10658 -7.74605,1.10658 z m 53.48456,-25.1439 c 1.3115,-2.950868 1.96725,-5.102543 1.96725,-6.455023 0,-1.188549 -0.40984,-2.008237 -1.22952,-2.459063 -0.81969,-0.450827 -2.00824,-0.67624 -3.56565,-0.67624 h -12.47973 l -12.17235,27.479996 h 12.41826 c 1.22953,0 2.37709,-0.18443 3.44269,-0.55328 1.06559,-0.40985 2.06971,-1.0451 3.01234,-1.90578 0.98363,-0.90166 1.92627,-2.04921 2.82792,-3.44268 0.94264,-1.43445 1.88528,-3.19678 2.82791,-5.28698 z"
       fill="#000000"
       id="path14-27" />
  </g>
</svg>
